<?xml version="1.0" encoding="utf-8"?><svg xmlns="http://www.w3.org/2000/svg" xmlns:xlink="http://www.w3.org/1999/xlink"><symbol viewBox="0 0 13 20" id="arrow" xmlns="http://www.w3.org/2000/svg"><path d="M.87 1.339L9.83 10 .87 18.661 2.177 20 12.53 10 2.177 0 .869 1.339z"/></symbol><symbol viewBox="0 0 34 16" id="arrow-next" xmlns="http://www.w3.org/2000/svg"><path d="M32.854 8.707a1 1 0 0 0 0-1.414L26.49.929a1 1 0 1 0-1.414 1.414L30.733 8l-5.657 5.657a1 1 0 1 0 1.414 1.414l6.364-6.364zM0 9h32.147V7H0v2z"/></symbol><symbol viewBox="0 0 512 512" id="fb" xmlns="http://www.w3.org/2000/svg"><path d="M288 176v-64c0-17.664 14.336-32 32-32h32V0h-64c-53.024 0-96 42.976-96 96v80h-64v80h64v256h96V256h64l32-80h-96z"/></symbol><symbol viewBox="0 0 44 24" id="menu" xmlns="http://www.w3.org/2000/svg"><path d="M0 0h32v4H0V0zm0 10h44v4H0v-4zm0 10h32v4H0v-4z"/></symbol></svg>